<?xml version="1.0" standalone="no"?>
<!DOCTYPE svg PUBLIC "-//W3C//DTD SVG 20010904//EN"
 "http://www.w3.org/TR/2001/REC-SVG-20010904/DTD/svg10.dtd">
<svg version="1.0" xmlns="http://www.w3.org/2000/svg"
 width="825.000000pt" height="825.000000pt" viewBox="0 0 825.000000 825.000000"
 preserveAspectRatio="xMidYMid meet">

<g transform="translate(0.000000,825.000000) scale(0.100000,-0.100000)"
fill="#000000" stroke="none">
<path d="M3880 8240 c-1194 -67 -2318 -668 -3042 -1626 -329 -436 -573 -940
-712 -1475 -84 -322 -107 -496 -113 -872 -9 -488 30 -851 132 -1219 271 -977
870 -1806 1712 -2366 539 -360 1147 -580 1818 -658 209 -25 671 -25 880 0 515
60 952 190 1405 417 388 195 706 421 1016 722 357 346 626 711 842 1143 203
405 339 856 399 1319 28 218 25 730 -5 960 -121 911 -470 1677 -1059 2329
-556 614 -1340 1064 -2158 1237 -358 76 -765 109 -1115 89z m692 -140 c139
-16 592 -117 719 -160 235 -79 548 -218 764 -339 594 -333 1108 -830 1456
-1410 298 -495 472 -1008 545 -1611 22 -179 25 -654 5 -830 -102 -906 -431
-1627 -1048 -2295 -182 -197 -479 -458 -665 -583 -261 -175 -743 -415 -1040
-516 -116 -40 -594 -147 -748 -168 -124 -17 -800 -17 -919 0 -163 23 -641 133
-770 177 -340 117 -714 304 -984 493 -846 592 -1355 1291 -1606 2207 -113 411
-158 779 -148 1200 13 514 114 970 319 1445 213 490 482 876 912 1305 274 274
432 398 701 550 279 158 421 226 655 313 187 70 282 96 530 148 118 24 246 52
285 60 38 8 135 19 215 24 177 11 703 4 822 -10z"/>
<path d="M5127 5949 c-395 -14 -562 -50 -562 -120 0 -30 51 -65 109 -73 92
-14 255 -154 292 -252 l18 -47 -50 -46 c-28 -25 -115 -89 -195 -143 -160 -107
-289 -225 -359 -327 -58 -86 -109 -141 -130 -141 -26 0 -123 143 -276 406
l-133 227 46 54 c59 69 149 128 235 154 116 36 198 114 198 190 0 29 -6 42
-23 54 -32 20 -225 42 -512 56 -270 13 -439 8 -485 -16 -40 -21 -46 -51 -32
-165 26 -210 11 -250 -62 -168 -23 24 -65 84 -94 132 -29 48 -79 114 -110 147
-69 74 -85 78 -297 78 -158 0 -292 -12 -309 -29 -16 -16 14 -67 94 -160 209
-242 392 -539 464 -753 92 -276 112 -723 47 -1044 -31 -152 -127 -353 -280
-583 -158 -240 -305 -401 -455 -502 -195 -130 -539 -274 -746 -313 -198 -36
-244 -52 -255 -85 -15 -48 69 -149 142 -169 124 -35 330 25 660 189 666 331
1062 852 1188 1560 36 202 31 569 -11 794 -8 44 -18 111 -21 148 -5 59 -3 69
12 74 33 13 96 -72 219 -296 134 -241 272 -476 386 -655 43 -66 108 -173 145
-239 143 -249 236 -344 466 -474 l56 -32 1342 0 c1433 0 1380 -2 1424 48 12
13 17 32 15 54 -3 30 -7 34 -48 45 -33 8 -379 12 -1311 12 l-1266 1 -100 70
c-253 174 -308 249 -744 1010 -259 453 -301 537 -325 651 -21 103 -6 171 55
249 22 28 25 24 35 -45 14 -101 300 -602 611 -1070 273 -412 390 -560 535
-676 l45 -36 400 13 c220 7 641 20 935 28 1023 31 1121 42 1161 130 24 53 24
77 -1 109 -26 32 -84 54 -181 66 -42 6 -88 15 -103 21 l-28 10 19 29 c10 17
54 69 99 118 105 115 121 139 139 209 20 78 36 377 37 709 2 315 -6 367 -77
513 -110 229 -221 337 -279 273 -47 -52 -5 -207 154 -576 59 -137 120 -308
120 -336 0 -29 -15 -24 -93 31 -156 108 -296 250 -333 339 -8 19 -24 76 -34
125 -11 49 -27 100 -35 112 -20 31 -84 47 -167 42 -74 -4 -86 -11 -151 -93
-51 -65 -69 -74 -143 -75 -64 0 -232 30 -276 50 -35 17 -58 61 -58 115 0 57
18 91 65 128 20 16 40 39 45 53 13 33 -6 79 -38 93 -65 30 -370 37 -825 20z
m948 -697 c210 -45 285 -116 270 -255 -9 -79 12 -134 68 -182 64 -55 143 -69
215 -40 49 21 82 53 82 81 0 37 22 74 47 80 53 14 143 -57 198 -157 28 -50 30
-61 30 -159 0 -103 -1 -106 -39 -178 -109 -204 -344 -326 -801 -417 -330 -65
-452 -69 -706 -21 -370 70 -636 184 -795 341 -105 104 -138 168 -138 275 -1
63 4 85 28 133 120 246 561 464 1046 517 128 13 389 4 495 -18z"/>
<path d="M1474 5940 c-111 -10 -176 -36 -204 -82 -11 -18 -20 -41 -20 -50 0
-29 37 -58 74 -58 91 0 129 -46 107 -129 -7 -25 -47 -120 -90 -211 -135 -285
-224 -508 -251 -632 -11 -50 -11 -63 4 -103 21 -54 81 -108 144 -129 89 -31
146 -16 196 52 129 178 434 851 532 1176 27 90 30 119 12 134 -34 28 -335 47
-504 32z"/>
<path d="M2034 5623 c-12 -2 -30 -13 -39 -23 -16 -17 -16 -23 -4 -52 18 -45
129 -206 248 -361 110 -144 181 -271 206 -366 37 -143 43 -555 10 -741 -75
-436 -563 -885 -1060 -975 -299 -55 -327 -62 -348 -96 -27 -43 45 -137 123
-160 161 -48 469 32 738 192 198 116 422 304 523 437 138 182 239 481 270 797
14 144 7 361 -16 468 -52 250 -250 634 -399 775 -78 74 -184 118 -252 105z"/>
<path d="M5064 3119 l-109 -109 53 0 52 0 0 -285 0 -285 -52 0 -53 0 113 -112
112 -113 105 110 c57 61 104 113 105 118 0 4 -22 7 -50 7 l-50 0 0 275 0 275
50 0 c28 0 50 3 50 7 0 7 -187 203 -206 215 -6 4 -58 -41 -120 -103z"/>
</g>
</svg>
