<?xml version="1.0" standalone="no"?>
<!DOCTYPE svg PUBLIC "-//W3C//DTD SVG 20010904//EN"
 "http://www.w3.org/TR/2001/REC-SVG-20010904/DTD/svg10.dtd">
<svg version="1.0" xmlns="http://www.w3.org/2000/svg"
 width="198.000000pt" height="198.000000pt" viewBox="0 0 198.000000 198.000000"
 preserveAspectRatio="xMidYMid meet">

<g transform="translate(0.000000,198.000000) scale(0.100000,-0.100000)"
fill="#000000" stroke="none">
<path d="M845 1969 c-93 -13 -222 -56 -312 -104 -426 -225 -629 -715 -486
-1170 95 -302 337 -547 633 -643 296 -97 606 -52 870 124 123 82 255 234 325
374 244 486 43 1080 -450 1328 -169 85 -386 119 -580 91z m374 -59 c335 -82
603 -350 693 -692 29 -110 31 -339 5 -438 -62 -227 -165 -392 -325 -524 -208
-170 -495 -247 -753 -201 -378 66 -665 325 -767 693 -23 85 -26 115 -26 242 0
178 20 267 94 417 135 273 383 460 687 518 103 19 280 13 392 -15z"/>
<path d="M482 1388 c-89 -62 -164 -121 -167 -130 -11 -31 5 -58 37 -65 18 -3
33 -14 38 -28 11 -29 176 -265 200 -286 12 -10 16 -24 13 -42 -6 -31 11 -57
38 -57 17 0 19 -8 19 -75 0 -73 1 -75 25 -75 24 0 25 -2 25 -63 0 -62 0 -63
53 -115 l53 -52 165 0 165 0 52 53 c51 52 52 53 52 115 0 59 1 62 25 62 24 0
25 2 25 75 0 73 1 75 25 75 29 0 49 32 41 66 -4 13 -2 24 3 24 11 0 204 273
214 303 4 9 15 17 25 17 22 0 52 30 52 52 0 8 -10 24 -22 35 -47 43 -313 223
-329 223 -27 0 -51 -30 -46 -57 3 -17 -2 -28 -15 -36 -10 -7 -33 -33 -49 -59
-25 -39 -34 -46 -47 -38 -39 23 -59 48 -66 82 -15 79 -118 107 -177 49 -17
-18 -29 -40 -29 -56 0 -15 -10 -35 -22 -46 -50 -42 -53 -42 -89 11 -19 28 -42
53 -51 56 -13 4 -16 12 -12 33 6 31 -16 61 -45 61 -9 0 -90 -51 -179 -112z
m186 60 c-5 -15 -289 -217 -306 -217 -30 -2 0 24 143 124 146 103 171 117 163
93z m807 -99 c136 -96 163 -120 133 -119 -19 1 -301 203 -306 219 -8 23 18 8
173 -100z m-436 65 c42 -54 13 -118 -54 -118 -67 0 -96 64 -54 118 15 19 30
26 54 26 24 0 39 -7 54 -26z m-235 -176 c53 -75 96 -143 96 -151 0 -20 -36
-49 -56 -45 -22 4 -214 274 -214 299 0 24 38 49 61 41 10 -4 61 -69 113 -144z
m514 136 c12 -8 22 -23 22 -32 0 -20 -182 -282 -205 -294 -23 -14 -54 0 -61
27 -5 20 13 51 86 157 85 123 114 158 130 158 3 0 16 -7 28 -16z m-444 -90
c-31 -25 -44 -29 -44 -15 0 14 53 50 63 44 5 -3 -4 -16 -19 -29z m266 -15 c0
-14 -8 -11 -40 13 -16 11 -27 25 -24 30 6 10 64 -29 64 -43z m-450 -91 c51
-73 95 -143 98 -156 6 -28 -14 -52 -44 -52 -18 0 -42 28 -118 137 -114 161
-123 199 -50 202 16 1 43 -31 114 -131z m738 120 c24 -24 10 -56 -84 -191 -97
-140 -119 -158 -152 -125 -24 24 -10 56 84 191 97 140 119 158 152 125z m-462
-34 c13 -3 38 -1 55 5 26 9 35 7 60 -11 16 -12 29 -25 29 -30 0 -4 -16 -30
-35 -57 -19 -26 -35 -55 -35 -63 0 -21 -50 -36 -82 -24 -16 6 -28 17 -28 24 0
8 -16 36 -35 62 -19 26 -35 51 -35 56 0 15 55 53 68 49 8 -3 25 -8 38 -11z
m-474 -36 c26 -21 198 -274 198 -291 0 -24 -45 -51 -65 -40 -27 15 -205 276
-205 300 0 36 43 54 72 31z m1042 -4 c9 -8 16 -22 16 -31 0 -20 -189 -290
-208 -298 -20 -7 -62 21 -62 43 0 18 171 269 198 290 21 16 37 15 56 -4z
m-576 -186 c-6 -16 -288 -217 -306 -218 -30 -1 -1 25 143 125 147 104 171 117
163 93z m222 -97 c140 -98 167 -121 138 -121 -19 1 -301 202 -306 219 -7 23
14 10 168 -98z m35 -103 l40 -28 -3 -65 c-4 -61 -5 -65 -28 -65 -23 0 -24 -2
-24 -82 0 -81 0 -83 -37 -120 l-37 -38 -143 0 -143 0 -40 36 -40 36 0 84 c0
83 0 84 -25 84 -24 0 -25 2 -25 64 l0 63 137 96 137 96 95 -67 c53 -36 114
-79 136 -94z"/>
<path d="M916 845 c-82 -29 -144 -129 -129 -208 20 -104 93 -167 193 -167 146
0 240 151 174 281 -19 39 -78 86 -121 98 -49 14 -69 13 -117 -4z m133 -53
c109 -55 105 -209 -6 -263 -100 -48 -208 22 -208 134 0 114 112 182 214 129z"/>
<path d="M961 776 c-16 -20 -3 -46 24 -46 13 0 26 7 29 16 7 19 -10 44 -29 44
-7 0 -18 -6 -24 -14z"/>
<path d="M945 686 c-23 -34 -5 -66 35 -66 40 0 58 32 35 66 -8 13 -24 24 -35
24 -11 0 -27 -11 -35 -24z m51 -17 c10 -17 -13 -36 -27 -22 -12 12 -4 33 11
33 5 0 12 -5 16 -11z"/>
<path d="M864 676 c-10 -26 4 -48 28 -44 17 2 23 10 23 28 0 18 -6 26 -23 28
-13 2 -25 -3 -28 -12z"/>
<path d="M1054 676 c-10 -26 4 -48 28 -44 17 2 23 10 23 28 0 18 -6 26 -23 28
-13 2 -25 -3 -28 -12z"/>
<path d="M962 588 c-16 -16 -15 -33 2 -47 28 -23 68 17 45 45 -14 17 -31 18
-47 2z"/>
</g>
</svg>
