<?xml version="1.0" standalone="no"?>
<!DOCTYPE svg PUBLIC "-//W3C//DTD SVG 20010904//EN"
 "http://www.w3.org/TR/2001/REC-SVG-20010904/DTD/svg10.dtd">
<svg version="1.0" xmlns="http://www.w3.org/2000/svg"
 width="198.000000pt" height="198.000000pt" viewBox="0 0 198.000000 198.000000"
 preserveAspectRatio="xMidYMid meet">

<g transform="translate(0.000000,198.000000) scale(0.100000,-0.100000)"
fill="#000000" stroke="none">
<path d="M817 1964 c-403 -73 -715 -378 -799 -784 -25 -118 -20 -301 11 -425
70 -282 258 -518 516 -649 234 -119 510 -138 760 -53 419 143 698 553 671 984
-26 415 -285 758 -671 890 -152 52 -331 65 -488 37z m408 -54 c170 -45 381
-175 482 -297 97 -117 166 -251 204 -393 33 -123 33 -339 1 -460 -79 -290
-281 -529 -541 -639 -138 -59 -220 -75 -381 -75 -161 0 -240 15 -381 75 -257
108 -464 351 -541 634 -31 115 -31 355 0 470 25 89 84 220 133 293 144 211
368 358 624 408 99 19 297 12 400 -16z"/>
<path d="M961 1253 c-45 -45 -65 -126 -66 -263 0 -187 47 -300 127 -300 45 0
139 25 189 51 58 29 125 93 149 143 26 55 27 146 1 201 -44 94 -180 180 -304
192 -63 6 -67 5 -96 -24z m130 -67 c168 -39 252 -166 186 -279 -33 -56 -102
-101 -187 -123 -61 -15 -64 -15 -77 2 -24 33 -33 87 -33 199 0 107 11 177 32
203 13 15 10 15 79 -2z"/>
<path d="M718 1231 c-75 -20 -140 -39 -143 -43 -4 -4 -4 -20 0 -37 8 -38 16
-39 155 -3 l104 27 13 44 c7 25 12 45 10 46 -1 1 -64 -15 -139 -34z"/>
<path d="M688 1016 c-64 -17 -119 -34 -122 -37 -3 -3 -1 -21 4 -40 l10 -35
115 29 115 30 0 44 c0 23 -1 43 -2 42 -2 -1 -56 -15 -120 -33z"/>
<path d="M680 808 c-63 -16 -116 -30 -117 -32 -8 -8 20 -77 30 -73 7 2 64 17
128 32 l116 28 -10 39 c-5 21 -15 38 -21 37 -6 0 -63 -14 -126 -31z"/>
</g>
</svg>
