<?xml version="1.0" encoding="utf-8"?>
<!-- Generator: Adobe Illustrator 24.0.1, SVG Export Plug-In . SVG Version: 6.00 Build 0)  -->
<svg version="1.1" id="Capa_1" xmlns="http://www.w3.org/2000/svg" xmlns:xlink="http://www.w3.org/1999/xlink" x="0px" y="0px"
	 viewBox="0 0 198 198" style="enable-background:new 0 0 198 198;" xml:space="preserve">
<g transform="translate(0.000000,198.000000) scale(0.100000,-0.100000)">
	<path d="M845,1969c-93-13-222-56-312-104C107,1640-96,1150,47,695c95-302,337-547,633-643c296-97,606-52,870,124
		c123,82,255,234,325,374c244,486,43,1080-450,1328C1256,1963,1039,1997,845,1969z M1219,1910c335-82,603-350,693-692
		c29-110,31-339,5-438c-62-227-165-392-325-524C1384,86,1097,9,839,55C461,121,174,380,72,748c-23,85-26,115-26,242
		c0,178,20,267,94,417c135,273,383,460,687,518C930,1944,1107,1938,1219,1910z"/>
	<path d="M833,1479c-65-20-162-81-224-140c-48-45-104-148-125-229c-12-48-15-91-12-165c7-139,45-238,127-327l58-63l327-3l326-3
		l53,50c60,57,130,184,148,271c18,83,6,218-25,285c-35,78-108,187-142,214c-65,51-138,92-201,111C1056,1507,919,1507,833,1479z
		 M970,1400c4-37,9-46,28-48c20-3,22,1,22,43c0,29,5,48,13,51c26,9,170-45,231-87c105-73,128-117,71-139c-17-7-25-16-23-28
		c4-17,15-18,73-7c29,6,31,4,48-42c11-28,21-90,24-150c8-129-4-153-72-153c-38,0-45-3-45-20s7-20,40-20c29,0,40-4,40-15
		c0-24-37-90-71-130l-31-35H995H672l-51,56c-51,56-71,98-55,114c5,5,25,10,44,12c24,2,36,9,38,21c3,14-4,17-45,17c-26,0-54,4-61,9
		c-41,25-26,261,21,325c12,17,17,17,49,6c36-13,68-9,68,10c0,5-16,20-35,32c-19,13-35,26-35,30c0,14,110,117,142,134
		c47,25,169,63,193,61C961,1445,966,1436,970,1400z"/>
	<path d="M970,1184c-6-14-10-32-10-40s-12-86-26-174c-22-138-24-162-12-187c27-56,103-66,135-17c13,21,14,38,4,132
		c-20,181-36,286-44,300C1004,1218,980,1212,970,1184z"/>
</g>
</svg>
