<?xml version="1.0" standalone="no"?>
<!DOCTYPE svg PUBLIC "-//W3C//DTD SVG 20010904//EN"
 "http://www.w3.org/TR/2001/REC-SVG-20010904/DTD/svg10.dtd">
<svg version="1.0" xmlns="http://www.w3.org/2000/svg"
 width="198.000000pt" height="198.000000pt" viewBox="0 0 198.000000 198.000000"
 preserveAspectRatio="xMidYMid meet">

<g transform="translate(0.000000,198.000000) scale(0.100000,-0.100000)"
fill="#000000" stroke="none">
<path d="M845 1969 c-93 -13 -222 -56 -312 -104 -426 -225 -629 -715 -486
-1170 95 -302 337 -547 633 -643 296 -97 606 -52 870 124 123 82 255 234 325
374 244 486 43 1080 -450 1328 -169 85 -386 119 -580 91z m374 -59 c335 -82
603 -350 693 -692 29 -110 31 -339 5 -438 -62 -227 -165 -392 -325 -524 -208
-170 -495 -247 -753 -201 -378 66 -665 325 -767 693 -23 85 -26 115 -26 242 0
178 20 267 94 417 135 273 383 460 687 518 103 19 280 13 392 -15z"/>
<path d="M891 1414 c-70 -19 -141 -58 -182 -100 l-33 -34 68 0 c48 0 82 6 119
23 40 17 71 22 137 22 66 0 97 -5 137 -22 37 -17 71 -23 119 -23 l68 0 -33 34
c-92 95 -261 137 -400 100z"/>
<path d="M562 1378 c-35 -39 -90 -137 -114 -207 -32 -94 -32 -258 0 -352 25
-73 80 -171 117 -208 l24 -25 25 23 25 23 -50 71 c-132 189 -123 438 22 617
l29 34 -22 23 c-27 28 -29 28 -56 1z"/>
<path d="M1382 1377 l-22 -23 28 -34 c66 -82 97 -154 112 -260 18 -127 -17
-261 -95 -365 l-45 -60 26 -25 25 -25 35 40 c50 58 100 163 120 252 37 166
-11 361 -122 492 -31 37 -34 38 -62 8z"/>
<path d="M639 1161 l-29 -29 0 -166 0 -166 40 0 40 0 0 80 0 80 40 0 40 0 0
-81 0 -80 38 3 37 3 0 168 0 169 -28 24 c-23 20 -39 24 -88 24 -54 0 -64 -3
-90 -29z m129 -88 c-3 -36 -5 -38 -40 -41 l-38 -3 0 40 0 41 41 0 40 0 -3 -37z"/>
<path d="M884 1177 c-2 -7 -3 -94 -2 -192 l3 -180 87 -3 c78 -2 89 -1 113 21
21 18 29 35 32 74 5 44 2 54 -18 75 l-24 23 23 22 c34 34 31 105 -7 144 -28
28 -34 29 -116 29 -60 0 -87 -4 -91 -13z m154 -104 c-3 -36 -5 -38 -38 -38
-33 0 -35 2 -38 38 l-3 37 41 0 41 0 -3 -37z m2 -153 l0 -40 -40 0 -40 0 0 40
0 40 40 0 40 0 0 -40z"/>
<path d="M1185 1167 c-20 -16 -28 -35 -32 -69 -11 -98 18 -138 102 -138 l55 0
0 -40 0 -40 -81 0 -80 0 3 -37 3 -38 88 -3 c86 -3 88 -2 119 28 29 29 30 34
26 95 -5 82 -20 98 -96 105 l-57 5 -3 38 -3 37 80 0 81 0 0 40 0 40 -89 0
c-79 0 -93 -3 -116 -23z"/>
<path d="M716 669 c73 -76 232 -122 350 -102 79 14 178 60 218 102 l30 31 -78
0 c-54 0 -86 -5 -109 -17 -24 -14 -55 -18 -127 -18 -72 0 -103 4 -127 18 -23
12 -55 17 -109 17 l-78 0 30 -31z"/>
</g>
</svg>
