<?xml version="1.0" standalone="no"?>
<!DOCTYPE svg PUBLIC "-//W3C//DTD SVG 20010904//EN"
 "http://www.w3.org/TR/2001/REC-SVG-20010904/DTD/svg10.dtd">
<svg version="1.0" xmlns="http://www.w3.org/2000/svg"
 width="198.000000pt" height="198.000000pt" viewBox="0 0 198.000000 198.000000"
 preserveAspectRatio="xMidYMid meet">

<g transform="translate(0.000000,198.000000) scale(0.100000,-0.100000)"
fill="#000000" stroke="none">
<path d="M845 1969 c-93 -13 -222 -56 -312 -104 -426 -225 -629 -715 -486
-1170 95 -302 337 -547 633 -643 296 -97 606 -52 870 124 123 82 255 234 325
374 244 486 43 1080 -450 1328 -169 85 -386 119 -580 91z m374 -59 c335 -82
603 -350 693 -692 29 -110 31 -339 5 -438 -62 -227 -165 -392 -325 -524 -208
-170 -495 -247 -753 -201 -378 66 -665 325 -767 693 -23 85 -26 115 -26 242 0
178 20 267 94 417 135 273 383 460 687 518 103 19 280 13 392 -15z"/>
<path d="M935 1528 c-14 -42 -165 -597 -165 -607 0 -7 24 -11 71 -11 62 0 70
-2 65 -17 -26 -87 -136 -516 -133 -519 3 -3 618 821 625 838 2 4 -39 8 -92 8
-81 0 -96 3 -96 16 0 12 48 192 76 287 5 16 -8 17 -171 17 -132 0 -177 -3
-180 -12z"/>
</g>
</svg>
